<?xml version="1.0" standalone="no"?>
<!DOCTYPE svg PUBLIC "-//W3C//DTD SVG 20010904//EN"
 "http://www.w3.org/TR/2001/REC-SVG-20010904/DTD/svg10.dtd">
<svg version="1.0" xmlns="http://www.w3.org/2000/svg"
 width="58.000000pt" height="58.000000pt" viewBox="0 0 58.000000 58.000000"
 preserveAspectRatio="xMidYMid meet">

<g transform="translate(0.000000,58.000000) scale(0.100000,-0.100000)"
fill="#000000" stroke="none">
<path d="M102 305 c-45 -91 -82 -167 -82 -170 0 -3 26 -5 58 -5 l57 1 75 160
c41 89 77 165 78 170 2 5 -20 9 -50 9 l-53 0 -83 -165z"/>
<path d="M265 300 l-85 -170 58 0 59 0 81 170 81 170 -55 0 -54 0 -85 -170z"/>
<path d="M410 240 c-27 -55 -50 -102 -50 -105 0 -3 26 -5 59 -5 l58 0 46 105
46 105 -55 0 -54 0 -50 -100z"/>
</g>
</svg>
