<svg width="29" height="30" viewBox="0 0 29 30" fill="none" xmlns="http://www.w3.org/2000/svg">
<path d="M5.07243 27.0266C4.81378 26.0376 4.587 25.1081 4.32835 24.189C3.73626 22.0895 3.12824 19.9953 2.52635 17.8997C2.21009 16.7983 2.26648 16.66 3.19321 16.0899C3.77304 15.7331 4.33448 15.3414 4.91553 14.9885C5.2085 14.8101 5.26857 14.5567 5.26734 14.2335C5.25999 12.902 5.26121 11.5692 5.26734 10.2376C5.27102 9.41803 5.41935 9.22153 6.1806 9.22153C6.71262 9.22153 6.93449 9.02632 6.8781 8.46527C6.85481 8.23128 6.87565 7.99342 6.8781 7.75685C6.88301 7.23457 7.12327 6.97603 7.62832 6.95405C8.07085 6.93466 8.59429 7.1402 8.93752 6.84675C9.30896 6.53003 9.05153 5.95475 9.10669 5.49712C9.17902 4.90633 9.44993 4.61547 10.0322 4.63615C10.6218 4.65813 11.2139 4.62064 11.8035 4.64649C12.2314 4.66588 12.3797 4.4849 12.3723 4.04407C12.354 3.01375 12.3601 1.98085 12.3699 0.950525C12.3772 0.192974 12.5574 0.0119892 13.2868 0.00294C13.8777 -0.00481649 14.4673 0.0055255 15.0582 0.00294C15.5914 -0.000938242 15.8415 0.280881 15.8415 0.83547C15.8415 1.86708 15.8697 2.8987 15.8329 3.92902C15.8121 4.50946 16.0168 4.69045 16.5414 4.65037C17.0686 4.6103 17.5993 4.63744 18.1289 4.64391C18.8301 4.65296 19.0458 4.86367 19.1035 5.57598C19.1754 6.4697 19.6314 6.93035 20.4715 6.95793C21.1335 6.9799 21.3063 7.15572 21.3333 7.8357C21.3394 7.98566 21.3529 8.1395 21.3333 8.28687C21.2438 8.96686 21.473 9.27841 22.1644 9.2267C22.7185 9.18533 22.9538 9.53825 22.9477 10.1226C22.933 11.4334 22.9636 12.7443 22.9342 14.0538C22.9232 14.567 23.0666 14.8864 23.514 15.1294C24.1282 15.4616 24.6921 15.8947 25.2977 16.2476C25.8456 16.5682 25.94 17.0129 25.7696 17.6063C25.3271 19.1473 24.9054 20.696 24.469 22.2395C24.0448 23.7417 23.628 25.2464 23.1733 26.7383C23.0286 27.2127 23.1586 27.4183 23.5864 27.5139C24.6234 27.7453 25.609 27.7427 26.4548 26.9257C26.6792 26.7085 26.9305 26.5198 27.183 26.3401C27.4613 26.141 27.7641 26.0971 28.0154 26.3789C28.2814 26.6775 28.263 27.033 28.008 27.3084C26.8582 28.5468 25.0782 29.5952 23.0887 28.7731C22.7663 28.6399 22.4476 28.4977 22.1301 28.3516C20.9582 27.8138 19.8071 27.9134 18.7296 28.5856C17.0808 29.6159 15.4627 29.6224 13.8164 28.6089C12.4349 27.7582 11.0435 27.8526 9.6951 28.6787C8.29763 29.5345 6.88914 29.506 5.49167 28.7692C4.05253 28.0103 2.74946 28.1448 1.51994 29.2281C1.34832 29.3794 1.16567 29.5216 0.969531 29.6314C0.675328 29.7969 0.362738 29.8124 0.143312 29.5086C-0.0675338 29.2165 -0.0442428 28.8636 0.203378 28.6244C1.37896 27.4932 2.66487 26.6349 4.36635 26.9257C4.58087 26.9619 4.79785 26.9891 5.07366 27.0291L5.07243 27.0266ZM14.7431 19.3166C14.7431 21.8491 14.7591 24.3816 14.7309 26.9141C14.7247 27.4881 14.9552 27.6962 15.4284 27.8462C16.4777 28.1771 17.402 27.8268 18.2907 27.3187C19.2665 26.7602 20.2815 26.4565 21.3933 26.6064C21.7108 26.6491 21.88 26.5482 21.9732 26.2134C22.7589 23.3939 23.552 20.5783 24.3538 17.764C24.4457 17.4395 24.377 17.2443 24.1049 17.0711C21.1813 15.2082 18.2638 13.3351 15.3389 11.4735C14.8155 11.14 14.7431 11.1917 14.7431 11.8484C14.7407 14.3382 14.7431 16.8281 14.7431 19.3166ZM13.4633 19.0348C13.4633 16.6096 13.4572 14.1844 13.4682 11.7592C13.4707 11.2925 13.3493 11.1503 12.9509 11.4218C12.8651 11.48 12.7756 11.5304 12.6886 11.586C9.85446 13.3984 7.02521 15.2186 4.18247 17.0142C3.80001 17.256 3.77426 17.5055 3.88949 17.9127C4.76597 21.0166 5.63387 24.123 6.4797 27.236C6.60842 27.7091 6.84746 27.9056 7.28876 27.9276C8.1395 27.9716 8.88481 27.6341 9.59458 27.2062C10.5973 26.6038 11.6577 26.4047 12.7683 26.706C13.3248 26.8572 13.4781 26.7176 13.4707 26.1178C13.445 23.7572 13.4609 21.3966 13.4597 19.0361L13.4633 19.0348ZM14.1596 8.21319C12.3503 8.21319 10.5409 8.21706 8.73158 8.20931C8.38712 8.20801 8.13459 8.2468 8.14808 8.71865C8.16279 9.25385 8.51093 9.20214 8.83333 9.20214C12.3503 9.20472 15.8672 9.20472 19.3829 9.20214C19.7115 9.20214 20.0474 9.23834 20.0584 8.70702C20.0694 8.16406 19.7348 8.2106 19.4038 8.2106C17.6557 8.2106 15.9077 8.2106 14.1596 8.2106V8.21319ZM11.5988 10.6901L11.5743 10.5363C10.0359 10.5363 8.49867 10.5388 6.96024 10.535C6.59739 10.535 6.52138 10.7677 6.52261 11.0831C6.52384 11.8122 6.52629 12.5413 6.52016 13.2717C6.51648 13.75 6.69055 13.8457 7.07424 13.5988C8.5808 12.6266 10.0898 11.6609 11.5976 10.6914L11.5988 10.6901ZM16.6444 10.5337L16.5905 10.6785C18.1326 11.6674 19.6747 12.6577 21.218 13.644C21.5208 13.8366 21.679 13.7229 21.6814 13.3609C21.6839 12.5672 21.6814 11.7734 21.6802 10.9797C21.6802 10.6539 21.5073 10.5311 21.2119 10.5324C19.6894 10.5363 18.1669 10.5337 16.6444 10.5337ZM14.0775 6.95146C15.1146 6.95146 16.1516 6.94241 17.1887 6.95663C17.5577 6.96181 17.7563 6.85709 17.7563 6.41627C17.7563 5.96768 17.5417 5.88624 17.1801 5.88753C15.1268 5.89658 13.0735 5.89787 11.019 5.88753C10.6488 5.88624 10.4527 5.98707 10.4527 6.42661C10.4527 6.87519 10.6672 6.96181 11.0276 6.95663C12.0438 6.94371 13.0613 6.95276 14.0775 6.95276V6.95146ZM13.6484 2.90257C13.6484 3.33047 13.6533 3.75837 13.6472 4.18627C13.6423 4.51592 13.7919 4.63874 14.0959 4.63874C14.3876 4.63874 14.5629 4.54695 14.5605 4.20437C14.5568 3.37055 14.5568 2.53543 14.5605 1.70161C14.5629 1.37196 14.4146 1.24915 14.1118 1.24915C13.8201 1.24915 13.6423 1.34093 13.6472 1.68351C13.6521 2.08944 13.6484 2.49665 13.6472 2.90257H13.6484Z" fill="#FF0000"/>
<path d="M21.8112 18.2539C21.533 18.2539 21.3001 18.1143 21.077 17.9682C20.0938 17.3218 19.1144 16.6677 18.1337 16.0174C17.7807 15.7834 17.4779 15.4939 17.7377 15.0272C17.9866 14.5812 18.3887 14.6342 18.7527 14.8669C19.8658 15.5779 20.9703 16.3018 22.0723 17.0309C22.3518 17.2158 22.5087 17.4938 22.3825 17.8557C22.2893 18.1259 22.0809 18.2474 21.8112 18.2539Z" fill="#FF0000"/>
<path d="M6.75399 18.2578C6.51495 18.263 6.30533 18.1931 6.195 17.9527C6.07977 17.7006 6.10184 17.4421 6.28694 17.2365C6.42546 17.084 6.5885 16.9495 6.75767 16.8358C7.7506 16.1739 8.74721 15.5159 9.7475 14.8656C10.1042 14.6342 10.5026 14.5256 10.7527 14.9871C10.9832 15.4124 10.7882 15.7499 10.4058 16.0019C9.40794 16.6574 8.41991 17.3283 7.4282 17.9915C7.22226 18.1298 7.01142 18.2604 6.75521 18.2565L6.75399 18.2578Z" fill="#FF0000"/>
</svg>
