<svg width="33" height="31" viewBox="0 0 33 31" fill="none" xmlns="http://www.w3.org/2000/svg">
<path d="M33 29.5L28.5 10H12L7 29.5H33Z" fill="#FF0000" fill-opacity="0.3"/>
<path d="M12.8264 0.105568C11.5731 0.371973 10.4167 1.16514 9.69615 2.25498C8.63658 3.84736 8.61236 6.03311 9.6356 7.6376L9.84752 7.97061L8.05533 7.99483C6.42662 8.01904 6.22076 8.03721 5.86353 8.15225C4.62232 8.55791 3.66568 9.58721 3.36295 10.8284C3.1692 11.6155 0.0389226 27.7634 0.00864916 28.1146C-0.100335 29.4224 0.832087 30.6454 2.15806 30.9239C2.61216 31.0208 25.0993 31.0208 25.5534 30.9239C26.8794 30.6454 27.8118 29.4224 27.7028 28.1146C27.6725 27.7634 24.5422 11.6155 24.3485 10.8284C24.0458 9.58721 23.0952 8.56396 21.8479 8.15225C21.4665 8.01904 21.3575 8.01904 17.3372 7.98272C13.3047 7.95244 13.2139 7.94639 12.8749 7.81924C10.786 7.03213 10.1866 4.43467 11.7305 2.89678C12.1483 2.479 12.5358 2.24287 13.0626 2.09756C14.6428 1.66162 16.2534 2.57588 16.7499 4.19248C16.871 4.59209 16.8649 5.3792 16.7378 5.79697C16.544 6.45693 16.653 6.86865 17.1192 7.17744C17.5249 7.4499 18.1545 7.3167 18.427 6.89893C18.7782 6.36611 18.9295 4.91904 18.7297 3.95635C18.1788 1.28623 15.5026 -0.457518 12.8264 0.105568ZM21.5512 10.1745C21.9145 10.3864 22.2294 10.7437 22.3504 11.0767C22.4594 11.3673 25.7229 28.0237 25.7229 28.278C25.7229 28.5444 25.6139 28.7442 25.4081 28.8714C25.2083 28.9925 25.0932 28.9925 13.8557 28.9925C2.61822 28.9925 2.50318 28.9925 2.30338 28.8714C2.09752 28.7442 1.98853 28.5444 1.98853 28.278C1.98853 28.0237 5.25201 11.3673 5.36099 11.0767C5.51841 10.6347 6.00884 10.1745 6.45689 10.0413C6.54771 10.011 9.92017 9.99287 13.9465 9.99893L21.2727 10.011L21.5512 10.1745Z" fill="#FF0000"/>
<path d="M10.2228 14.9519C10.0291 15.0306 9.81109 15.2364 9.70211 15.4423C9.58101 15.6724 9.58707 17.0044 9.70816 17.2405C9.91402 17.6401 10.35 17.846 10.8101 17.7612C11.0886 17.7128 11.4822 17.3374 11.5306 17.071L11.573 16.8833H12.2269H12.8869L12.8748 19.4989L12.8566 22.1146L12.6507 22.1569C12.3964 22.2114 12.1724 22.3749 11.9908 22.6413C11.8697 22.8108 11.8515 22.9017 11.8697 23.1681C11.9 23.5253 12.0332 23.7433 12.342 23.9552C12.5357 24.0823 12.5902 24.0884 13.8556 24.0884C15.1211 24.0884 15.1755 24.0823 15.3693 23.9491C15.7144 23.719 15.8234 23.5192 15.8234 23.1196C15.8234 22.8532 15.7931 22.72 15.6962 22.5989C15.5207 22.3628 15.2966 22.2054 15.0605 22.1569L14.8546 22.1146L14.8365 19.4989L14.8244 16.8833H15.4843H16.1443L16.1806 17.071C16.2291 17.3374 16.6226 17.7128 16.9011 17.7612C17.216 17.8218 17.5127 17.7552 17.7306 17.5675C18.0515 17.3011 18.0939 17.1497 18.0939 16.3202C18.0939 15.4968 18.0334 15.3272 17.6519 15.0427C17.4824 14.9155 17.4279 14.9155 13.9283 14.9034C11.6517 14.8974 10.3197 14.9155 10.2228 14.9519Z" fill="#FF0000"/>
</svg>
