<svg width="31" height="34" viewBox="0 0 31 34" fill="none" xmlns="http://www.w3.org/2000/svg">
<path d="M31 21.0012V8.99877C30.9995 8.47257 30.8657 7.95577 30.6122 7.50021C30.3587 7.04464 29.9943 6.66633 29.5556 6.40324L19.4444 0.402006C19.0053 0.138647 18.5071 0 18 0C17.4929 0 16.9947 0.138647 16.5556 0.402006L6.44444 6.40324C6.00571 6.66633 5.6413 7.04464 5.38778 7.50021C5.13425 7.95577 5.00052 8.47257 5 8.99877V21.0012C5.00052 21.5274 5.13425 22.0442 5.38778 22.4998C5.6413 22.9554 6.00571 23.3337 6.44444 23.5968L16.5556 29.598C16.9947 29.8614 17.4929 30 18 30C18.5071 30 19.0053 29.8614 19.4444 29.598L29.5556 23.5968C29.9943 23.3337 30.3587 22.9554 30.6122 22.4998C30.8657 22.0442 30.9995 21.5274 31 21.0012Z" fill="#FE7D7D" fill-opacity="0.3"/>
<path d="M21.2517 14.0977L7.75049 6.31201" stroke="#FF0000" stroke-width="1.5" stroke-linecap="round" stroke-linejoin="round"/>
<path d="M28.0025 23.9988V11.9977C28.0019 11.4716 27.863 10.9549 27.5997 10.4993C27.3364 10.0438 26.958 9.66557 26.5023 9.40251L16.0014 3.40196C15.5453 3.13863 15.0279 3 14.5012 3C13.9746 3 13.4572 3.13863 13.0011 3.40196L2.50014 9.40251C2.04449 9.66557 1.66603 10.0438 1.40273 10.4993C1.13943 10.9549 1.00054 11.4716 1 11.9977V23.9988C1.00054 24.525 1.13943 25.0417 1.40273 25.4972C1.66603 25.9527 2.04449 26.331 2.50014 26.5941L13.0011 32.5946C13.4572 32.8579 13.9746 32.9966 14.5012 32.9966C15.0279 32.9966 15.5453 32.8579 16.0014 32.5946L26.5023 26.5941C26.958 26.331 27.3364 25.9527 27.5997 25.4972C27.863 25.0417 28.0019 24.525 28.0025 23.9988Z" stroke="#FF0000" stroke-width="1.5" stroke-linecap="round" stroke-linejoin="round"/>
<path d="M1.40503 10.4375L14.5012 18.0132L27.5974 10.4375" stroke="#FF0000" stroke-width="1.5" stroke-linecap="round" stroke-linejoin="round"/>
</svg>
