<svg width="36" height="33" viewBox="0 0 36 33" fill="none" xmlns="http://www.w3.org/2000/svg">
<path d="M24.4689 0.0685558C24.2626 0.187307 0.187617 24.2686 0.0813666 24.4623C-0.124883 24.8498 -0.168633 24.7998 3.51262 28.4811C5.78762 30.7498 7.02512 31.9436 7.13762 31.9686C7.23137 31.9936 7.36887 31.9936 7.45012 31.9686C7.62512 31.9186 31.7814 7.79981 31.9189 7.53731C32.1251 7.14981 32.1689 7.19981 28.4814 3.51231C25.4814 0.512306 25.0001 0.056057 24.8126 0.0310574C24.6939 0.0123062 24.5376 0.0310574 24.4689 0.0685558ZM27.6251 4.40606L30.4689 7.24981L18.8564 18.8623L7.25012 30.4686L4.39387 27.6123L1.53137 24.7498L2.18762 24.0936L2.83762 23.4373L3.47512 24.0623C4.04387 24.6248 4.13137 24.6873 4.33762 24.6873C4.63762 24.6873 4.78762 24.6061 4.91262 24.3623C5.08762 24.0248 4.99387 23.8436 4.32512 23.1686L3.71887 22.5623L4.37512 21.9061L5.02512 21.2498L6.09387 22.3061C6.77512 22.9873 7.21887 23.3811 7.33762 23.4123C7.75637 23.5123 8.20637 23.0373 8.05637 22.6436C8.02512 22.5498 7.52512 21.9998 6.95012 21.4248L5.90637 20.3748L6.56262 19.7186L7.21262 19.0686L7.85012 19.6873C8.42512 20.2436 8.51887 20.3123 8.71887 20.3123C9.01262 20.3123 9.16262 20.2248 9.28137 19.9998C9.46887 19.6373 9.41887 19.5311 8.73762 18.8311L8.10012 18.1873L8.75012 17.5311L9.40012 16.8748L10.4689 17.9311C11.2501 18.7061 11.5814 18.9998 11.7314 19.0311C12.1439 19.1186 12.5314 18.7123 12.4564 18.2811C12.4314 18.1436 12.1314 17.7998 11.3689 17.0311L10.3126 15.9623L10.9564 15.3311L11.5939 14.6936L12.2314 15.3123C12.8189 15.8936 12.8814 15.9373 13.1189 15.9373C13.4314 15.9373 13.7501 15.6498 13.7501 15.3686C13.7501 15.0811 13.6189 14.8936 13.0376 14.3123L12.5001 13.7811L13.1376 13.1436L13.7751 12.4998L14.8439 13.5561C15.5001 14.2061 15.9689 14.6248 16.0751 14.6498C16.5001 14.7498 16.9376 14.3123 16.8376 13.8873C16.8126 13.7811 16.3939 13.3123 15.7439 12.6561L14.6876 11.5873L15.3314 10.9498L15.9689 10.3123L16.4064 10.7561C17.2439 11.6061 17.5501 11.7373 17.9314 11.3811C18.0876 11.2373 18.1251 11.1498 18.1251 10.9373C18.1251 10.6936 18.0876 10.6436 17.5001 10.0436L16.8814 9.40606L17.5126 8.76856L18.1501 8.13106L19.2189 9.18106C20.3501 10.2998 20.4751 10.3748 20.8564 10.2186C21.1126 10.1123 21.2876 9.77481 21.2251 9.52481C21.1939 9.40606 20.8001 8.96231 20.1189 8.28106L19.0626 7.21231L19.7189 6.56231L20.3751 5.90606L20.9814 6.51231C21.6564 7.18106 21.8376 7.27481 22.1751 7.09981C22.4189 6.97481 22.5001 6.82481 22.5001 6.52481C22.5001 6.31856 22.4376 6.23106 21.8751 5.66231L21.2501 5.02481L21.9064 4.37481L22.5626 3.72481L23.6439 4.79981C24.6626 5.80606 24.7439 5.87481 24.9626 5.87481C25.2626 5.87481 25.4126 5.79356 25.5376 5.54981C25.7314 5.18106 25.6501 5.04981 24.5001 3.90606L23.4376 2.84356L24.0751 2.20606C24.4314 1.84981 24.7314 1.56231 24.7501 1.56231C24.7689 1.56231 26.0626 2.84356 27.6251 4.40606Z" fill="#FF0000"/>
<path d="M11.0751 22.8433C10.8626 23.0246 10.8001 23.2371 10.8876 23.5371C11.0314 24.0621 11.8251 24.0558 12.0001 23.5308C12.2001 22.9183 11.5564 22.4371 11.0751 22.8433Z" fill="#FF0000"/>
<path d="M8.2126 25.6372C7.0626 26.7935 6.43135 27.4685 6.40635 27.581C6.2876 28.056 6.69385 28.4622 7.1751 28.3497C7.2876 28.3185 7.9501 27.6997 9.1126 26.5372C10.8688 24.781 10.8751 24.7747 10.8751 24.506C10.8751 24.131 10.6188 23.8747 10.2438 23.8747C9.9751 23.8747 9.96885 23.8747 8.2126 25.6372Z" fill="#FF0000"/>
<g opacity="0.3">
<path d="M28.4689 1.06856C28.2626 1.18731 4.18762 25.2686 4.08137 25.4623C3.87512 25.8498 3.83137 25.7998 7.51262 29.4811C9.78762 31.7498 11.0251 32.9436 11.1376 32.9686C11.2314 32.9936 11.3689 32.9936 11.4501 32.9686C11.6251 32.9186 35.7814 8.79981 35.9189 8.53731C36.1251 8.14981 36.1689 8.19981 32.4814 4.51231C29.4814 1.51231 29.0001 1.05606 28.8126 1.03106C28.6939 1.01231 28.5376 1.03106 28.4689 1.06856ZM31.6251 5.40606L34.4689 8.24981L22.8564 19.8623L11.2501 31.4686L8.39387 28.6123L5.53137 25.7498L6.18762 25.0936L6.83762 24.4373L7.47512 25.0623C8.04387 25.6248 8.13137 25.6873 8.33762 25.6873C8.63762 25.6873 8.78762 25.6061 8.91262 25.3623C9.08762 25.0248 8.99387 24.8436 8.32512 24.1686L7.71887 23.5623L8.37512 22.9061L9.02512 22.2498L10.0939 23.3061C10.7751 23.9873 11.2189 24.3811 11.3376 24.4123C11.7564 24.5123 12.2064 24.0373 12.0564 23.6436C12.0251 23.5498 11.5251 22.9998 10.9501 22.4248L9.90637 21.3748L10.5626 20.7186L11.2126 20.0686L11.8501 20.6873C12.4251 21.2436 12.5189 21.3123 12.7189 21.3123C13.0126 21.3123 13.1626 21.2248 13.2814 20.9998C13.4689 20.6373 13.4189 20.5311 12.7376 19.8311L12.1001 19.1873L12.7501 18.5311L13.4001 17.8748L14.4689 18.9311C15.2501 19.7061 15.5814 19.9998 15.7314 20.0311C16.1439 20.1186 16.5314 19.7123 16.4564 19.2811C16.4314 19.1436 16.1314 18.7998 15.3689 18.0311L14.3126 16.9623L14.9564 16.3311L15.5939 15.6936L16.2314 16.3123C16.8189 16.8936 16.8814 16.9373 17.1189 16.9373C17.4314 16.9373 17.7501 16.6498 17.7501 16.3686C17.7501 16.0811 17.6189 15.8936 17.0376 15.3123L16.5001 14.7811L17.1376 14.1436L17.7751 13.4998L18.8439 14.5561C19.5001 15.2061 19.9689 15.6248 20.0751 15.6498C20.5001 15.7498 20.9376 15.3123 20.8376 14.8873C20.8126 14.7811 20.3939 14.3123 19.7439 13.6561L18.6876 12.5873L19.3314 11.9498L19.9689 11.3123L20.4064 11.7561C21.2439 12.6061 21.5501 12.7373 21.9314 12.3811C22.0876 12.2373 22.1251 12.1498 22.1251 11.9373C22.1251 11.6936 22.0876 11.6436 21.5001 11.0436L20.8814 10.4061L21.5126 9.76856L22.1501 9.13106L23.2189 10.1811C24.3501 11.2998 24.4751 11.3748 24.8564 11.2186C25.1126 11.1123 25.2876 10.7748 25.2251 10.5248C25.1939 10.4061 24.8001 9.96231 24.1189 9.28106L23.0626 8.21231L23.7189 7.56231L24.3751 6.90606L24.9814 7.51231C25.6564 8.18106 25.8376 8.27481 26.1751 8.09981C26.4189 7.97481 26.5001 7.82481 26.5001 7.52481C26.5001 7.31856 26.4376 7.23106 25.8751 6.66231L25.2501 6.02481L25.9064 5.37481L26.5626 4.72481L27.6439 5.79981C28.6626 6.80606 28.7439 6.87481 28.9626 6.87481C29.2626 6.87481 29.4126 6.79356 29.5376 6.54981C29.7314 6.18106 29.6501 6.04981 28.5001 4.90606L27.4376 3.84356L28.0751 3.20606C28.4314 2.84981 28.7314 2.56231 28.7501 2.56231C28.7689 2.56231 30.0626 3.84356 31.6251 5.40606Z" fill="#FF0000"/>
<path d="M15.0751 23.8433C14.8626 24.0246 14.8001 24.2371 14.8876 24.5371C15.0314 25.0621 15.8251 25.0558 16.0001 24.5308C16.2001 23.9183 15.5564 23.4371 15.0751 23.8433Z" fill="#FF0000"/>
<path d="M12.2126 26.6372C11.0626 27.7935 10.4313 28.4685 10.4063 28.581C10.2876 29.056 10.6938 29.4622 11.1751 29.3497C11.2876 29.3185 11.9501 28.6997 13.1126 27.5372C14.8688 25.781 14.8751 25.7747 14.8751 25.506C14.8751 25.131 14.6188 24.8747 14.2438 24.8747C13.9751 24.8747 13.9688 24.8747 12.2126 26.6372Z" fill="#FF0000"/>
</g>
</svg>
